C:\Users\gl24\Desktop\Patient 3 Collaboration with Marleny\nms_results\Right\EMG Files\Patient3_NormalGait_1pt0_02_Right_01_EMG.mot
version=1
nRows=24
nColumns=29
inDegrees=no
endheader
time	AddMag	AddLong	GlutMaxMed	GlutMed	Iliopsoas	Sartorius	SemiMemb	SemiTend	BicFemLong	RecFem	TenFascLat	Gracilis	BicFemShort	VastMed	VastLat	VastInt	GasMed	GasLat	TibAnt	TibPost	ExtHalLong	FlexHalLong	PeroneusLong	Sol	ExtDigLong	GlutMaxLat	FlexDigLong	RecFem2
1.705	-0.0057983	0.0083923	-0.015411	0.0036621	0.0041199	-0.00076294	0.012512	-0.0010681	0.0036621	-0.0041199	0.012817	0.0030518	0.019379	0.004425	0.00091553	-0.0038147	0.043793	-0.0015259	-0.11795	-0.00091553	0.013886	-0.018005	-0.019226	-0.0016785	0.011291	0.045013	-0.00091553	0.007019
1.706	0.0068665	0.0091553	-0.00030518	0.0085449	0.0079346	-0.005188	0.0065613	0.0028992	0.005188	-0.00045776	-0.0056457	0.0064087	0.017242	-0.0010681	-0.0067139	0.0035095	-0.045319	-0.014191	-0.085297	-0.0016785	0.0056457	-0.019836	-0.022125	0.011291	0.010376	0.043945	-0.0021362	0.0019836
1.707	0.010986	0.0073242	0.028687	-0.0015259	0.0074768	-0.00045776	0.0061035	0.0061035	0.0022888	-0.0048828	0.0177	-0.00076294	0.021515	0.00076294	-0.0013733	0.0057983	-0.14145	-0.0038147	-0.035858	0.0021362	-0.021515	-0.02243	0.009613	0.015411	0.00045776	0.029755	-0.0015259	0.0080872
1.708	-0.0016785	0.0061035	0.033264	0.0068665	0.0030518	-0.00061035	0.0048828	0.0067139	0.0041199	-0.0036621	0.029907	0.015564	0.010529	-0.00061035	0.0035095	-0.0030518	-0.076447	-0.004425	0.024414	0.0032043	0.0054932	-0.029907	0.0097656	0.035858	0.0073242	0.046234	-0.0016785	0.0064087
1.709	0.0030518	0.0064087	0.057526	0.005188	-0.0041199	-0.011749	0.0041199	0.0019836	0.0039673	-0.007782	0.0090027	-0.0033569	0.007782	0.00015259	-0.0041199	-0.0039673	0.26535	-0.0050354	0.035248	0	0.032349	-0.0090027	-0.0027466	0.062866	0.0028992	0.050201	-0.0027466	0.011139
1.71	-0.00030518	0.010834	0.070953	0.0064087	0.00045776	-0.00015259	-0.0033569	-0.0030518	0.005188	-0.007782	0.0090027	0.0065613	0.01358	-0.00061035	-0.00030518	-0.0041199	0.14877	-0.018311	0.024414	0.00030518	0.032501	-0.0041199	-0.012207	0.073395	-0.0054932	0.045013	0.0019836	0.0067139
1.711	0.0068665	0.0090027	0.075836	0.0045776	0.00045776	-0.010681	-0.0028992	0.007782	0.0041199	-0.0041199	0.013886	0.00076294	0.00045776	0.0068665	-0.0033569	-0.0021362	-0.20065	-0.010681	0.011139	-0.0039673	-0.037079	0.031433	0.00076294	0.05661	-0.0041199	0.03418	-0.0080872	0.0015259
1.712	0.02533	0.0062561	0.078735	0.0073242	0.0022888	-0.0022888	-0.0074768	0.002594	0.0039673	-0.0073242	0.015106	0.0074768	0.0059509	-0.011902	-0.0022888	-0.007019	-0.21271	-0.011444	0.0033569	-0.0019836	-0.04303	0.023193	0.013275	0.057678	0.00030518	0.028687	-0.002594	0.0061035
1.713	0.017548	0.0068665	0.093079	0.0067139	0.00015259	0.0028992	-0.00091553	-0.0039673	0.0059509	-0.0097656	0.023651	0.014343	0.0016785	0.0012207	0.0057983	0.00045776	-0.17258	-0.0064087	-0.0067139	0.0039673	-0.0054932	-0.028381	0.01236	0.067902	0.0018311	0.036011	-0.0071716	0.0028992
1.714	0.0177	0.0073242	0.1062	0.0064087	-0.00030518	0	-0.0062561	-0.0099182	0.0041199	-0.0050354	0.0094605	0.016327	0.00015259	-0.0012207	-0.0028992	-0.0019836	0.29831	0.0064087	-0.007019	-0.0024414	0.023956	0.033112	0.00076294	0.045471	-0.0019836	0.024567	-0.0021362	-0.0013733
1.715	0.019531	0.007019	0.10742	0.0062561	0.011139	0.0047302	-0.0057983	-0.0016785	0.0053406	0.0035095	0.017395	0.0068665	0.057983	-0.0022888	-0.005188	0.0010681	0.4718	-0.0050354	0.014648	0.005188	0.062561	0.010986	0.0021362	-0.002594	-0.0024414	0.036316	-0.0033569	-0.00061035
1.716	0.0050354	0.0071716	0.096741	0.00030518	0.0082398	0.0071716	-0.0059509	0.0056457	0.0083923	-0.014038	0.0076294	0.0076294	0.038147	-0.00061035	-0.00091553	-0.0050354	0.30029	0.0015259	0.02533	-0.0048828	0.061951	-0.00076294	-0.0019836	-0.056	0.0010681	0.042572	-0.0054932	-0.0022888
1.717	-0.014496	0.0076294	0.097656	-0.0021362	0.012665	-0.0099182	-0.0080872	0.0021362	0.0045776	-0.010376	0.015564	0.011749	0.036316	-0.0015259	-0.00091553	0.0016785	0.17731	0.0039673	0.022278	-0.0019836	0.02533	0.0050354	-0.013733	-0.084686	0.0038147	0.034027	-0.0027466	-0.0024414
1.718	-0.036163	0.01236	0.089416	0.0065613	0.0059509	-0.0073242	-0.002594	0.0094605	0.0074768	-0.0071716	-0.0015259	0.015106	0.0068665	-0.0079346	-0.00045776	-0.0057983	0.11505	-0.0015259	0.018005	-0.0053406	0.0039673	-0.0038147	-0.0028992	-0.073395	0.0054932	0.039825	-0.0027466	0.0013733
1.719	-0.017395	0.0080872	0.11337	0.005188	0.0093079	-0.0036621	0.0016785	0.0083923	0.0064087	-0.005188	-0.016785	0.01297	0.016174	0.00030518	-0.0057983	-0.0024414	0.081024	-0.005188	0.016937	-0.0024414	-0.012054	0.0022888	0.018768	-0.046997	0.0032043	0.039673	-0.0047302	0.0033569
1.72	-0.036926	0.0090027	0.10223	0.0035095	0.010071	0.0056457	-0.0056457	0.0012207	0.0038147	-0.0073242	-0.00045776	0.0091553	0.0048828	0	0.0036621	-0.0015259	0.070038	0.0035095	0.0065613	-0.00061035	-0.028687	0.0013733	0.010071	-0.0099182	0.0016785	0.0354	-0.0035095	0.0032043
1.721	-0.019684	0.0086975	0.096283	0.0083923	0.00030518	0.0067139	0.0022888	0.0056457	0.0062561	-0.011444	-0.0068665	0.01709	0.0079346	0.0057983	-0.00076294	-0.0024414	0.061951	0.0024414	-0.0047302	-0.0024414	-0.03418	0.010529	0.0028992	0.0082398	0.0047302	0.017853	-0.0027466	-0.00045776
1.722	-0.014038	0.010071	0.088654	0.0042725	-0.00061035	0.0065613	0.0048828	0.0019836	0.010529	-0.002594	0.018921	0.019684	-0.0042725	0.00045776	-0.00045776	-0.0016785	0.035553	-0.0036621	-0.010529	-0.0010681	-0.033875	0.0045776	0.0010681	0.0090027	0.00061035	0.022583	-0.0024414	-0.0035095
1.723	-0.0086975	0.010529	0.093842	0.0018311	0.014191	-0.0022888	0.0013733	0.0090027	0.0041199	-0.0054932	0.0021362	0.010529	0.0015259	-0.0064087	0.00091553	0.00015259	0.039825	-0.0021362	-0.0015259	-0.0018311	0.019989	0.0053406	-0.00030518	0.015411	0.002594	0.013275	-0.0033569	-0.0047302
1.724	-0.0045776	0.005188	0.079193	0.0057983	0.0079346	-0.0018311	0.0073242	0.0062561	0.0042725	-0.0093079	0.023804	0.029297	-0.0027466	0.00030518	-0.00061035	0.00015259	0.032501	0.0013733	0	-0.00015259	0.033417	0.0039673	0.0033569	-0.00015259	0.00091553	0.017242	-0.0018311	0.0050354
1.725	0.0068665	0.0080872	0.082397	0.0065613	0.016785	0.0056457	0.011597	-0.0047302	0.007782	-0.00045776	0.023498	0.01358	-0.015869	-0.0018311	0.0027466	-0.0018311	0.030365	-0.00061035	0.0028992	0.00091553	0.028687	0.0053406	0	0.0071716	0.00091553	0.013275	-0.0039673	0.0035095
1.726	0.013733	0.0062561	0.091553	-0.0013733	0.0067139	-0.0010681	-0.0021362	-0.0010681	0.00045776	0.0010681	0.011444	0.0083923	-0.0054932	0.005188	0.0042725	0.00045776	0.018616	-0.007019	-0.0059509	-0.0013733	0.019989	0.0038147	-0.00015259	0.0094605	0.0035095	0.01648	-0.0021362	0.0079346
1.727	0.037384	0.0030518	0.093536	0.0093079	0.0042725	0.004425	-0.0028992	-0.024567	0.0074768	0.0068665	0.031433	0.014954	-0.011444	0.0010681	0.007019	0.00091553	-0.010223	-0.00030518	-0.0088501	-0.0013733	0.0080872	0.0028992	0.0013733	0.017548	0.004425	0.0085449	-0.0028992	-0.009613
1.728	0.049896	0.0071716	0.077515	0.0068665	0.007019	0.0099182	0.013123	-0.0039673	0.010223	-0.0041199	0.023956	0.024719	-0.013886	-0.0015259	-0.00015259	-0.0068665	-0.0073242	0	-0.01236	-0.00091553	-0.0035095	0.00091553	0.0010681	0.028992	0.0033569	0.02182	-0.0021362	-0.009613
